<svg xmlns="http://www.w3.org/2000/svg" width="20" height="21" viewBox="0 0 20 21" fill="none"><path d="M12.5889 9.38056C14.0333 8.50278 15 6.93611 15 5.125C15 2.35833 12.7667 0.125 10 0.125C7.23333 0.125 5 2.35833 5 5.125C5 6.93611 5.96667 8.50278 7.41111 9.38056C3.14444 10.5917 0 14.6806 0 19.5694H1.66667C1.66667 14.6694 5.4 10.6806 10 10.6806C14.6 10.6806 18.3333 14.6694 18.3333 19.5694H20C20 14.6806 16.8556 10.5917 12.5889 9.38056ZM10 1.79167C11.8333 1.79167 13.3333 3.29167 13.3333 5.125C13.3333 6.95833 11.8333 8.45833 10 8.45833C8.16667 8.45833 6.66667 6.95833 6.66667 5.125C6.66667 3.29167 8.16667 1.79167 10 1.79167Z" fill="white"></path></svg>