<svg xmlns="http://www.w3.org/2000/svg" width="20" height="21" viewBox="0 0 20 21" fill="none"><path d="M20 19.361L15.1854 14.5464C16.3833 13.0632 17.1135 11.1807 17.1135 9.12707C17.1135 4.40374 13.2801 0.570312 8.55676 0.570312C3.83343 0.570312 0 4.40374 0 9.12707C0 13.8504 3.83343 17.6838 8.55676 17.6838C10.6104 17.6838 12.4929 16.9537 13.976 15.7557L18.7906 20.5703L20 19.361ZM1.71135 9.12707C1.71135 5.35069 4.78038 2.28166 8.55676 2.28166C12.3331 2.28166 15.4022 5.35069 15.4022 9.12707C15.4022 12.9035 12.3331 15.9725 8.55676 15.9725C4.78038 15.9725 1.71135 12.9035 1.71135 9.12707Z" fill="white"></path></svg>