<svg xmlns="http://www.w3.org/2000/svg" viewBox="0 0 65 46" width="65" height="46" preserveAspectRatio="xMidYMid meet" style="width: 100%; height: 100%; transform: translate3d(0px, 0px, 0px); content-visibility: visible;"><defs><clipPath id="__lottie_element_2"><rect width="65" height="46" x="0" y="0"></rect></clipPath></defs><g clip-path="url(#__lottie_element_2)"><g transform="matrix(1,0,0,1,0,24.000001907348633)" opacity="0.011792559018320787" style="display: block;"><path fill="rgb(182,86,33)" fill-opacity="0.4" d=" M56.709999084472656,14.239999771118164 C56.709999084472656,14.239999771118164 56.15999984741211,15.75 52.20000076293945,18.020000457763672 C50.34000015258789,19.09000015258789 44.689998626708984,21.65999984741211 37.54999923706055,21.65999984741211 C28.6299991607666,21.649999618530273 21.56999969482422,19.399999618530273 15.6899995803833,16.229999542236328 C11.350000381469727,13.899999618530273 7.210000038146973,10.5600004196167 4.539999961853027,7.190000057220459 C1.3899999856948853,3.2100000381469727 0,0.09000000357627869 0,0.09000000357627869 C0,0.09000000357627869 3.5199999809265137,-0.27000001072883606 7.400000095367432,0.46000000834465027 C10.100000381469727,0.9700000286102295 12.489999771118164,2.380000114440918 12.489999771118164,2.380000114440918 C12.489999771118164,2.380000114440918 12.5,2.380000114440918 12.5,2.380000114440918 C12.5,2.380000114440918 12.510000228881836,2.390000104904175 12.510000228881836,2.390000104904175 C12.510000228881836,2.390000104904175 15.1899995803833,4 15.1899995803833,4 C15.1899995803833,4 17.559999465942383,5.710000038146973 18.969999313354492,7.28000020980835 C21.389999389648438,9.979999542236328 23.8700008392334,13.489999771118164 27.1200008392334,15.420000076293945 C30.729999542236328,17.56999969482422 34.09000015258789,19.049999237060547 41.900001525878906,18.770000457763672 C49.0099983215332,18.510000228881836 56.709999084472656,14.239999771118164 56.709999084472656,14.239999771118164 C56.709999084472656,14.239999771118164 56.709999084472656,14.239999771118164 56.709999084472656,14.239999771118164z"></path></g><g style="display: none;" transform="matrix(1,0,0,1,22,23.999998092651367)" opacity="0.000013319191142358022"><path fill="rgb(182,86,33)" fill-opacity="0.4" d=" M43,0 C42.16999816894531,2.319999933242798 39.689998626708984,7.170000076293945 33.63999938964844,11.180000305175781 C30.700000762939453,13.119999885559082 24.309999465942383,15.520000457763672 18.309999465942383,15.539999961853027 C11.029999732971191,15.569999694824219 7.489999771118164,13.420000076293945 4.579999923706055,11.15999984741211 C3.009999990463257,9.9399995803833 0.09000000357627869,6.5 0,6.389999866485596 C0.09000000357627869,6.429999828338623 2.2699999809265137,7.630000114440918 4,8.390000343322754 C5.760000228881836,9.170000076293945 8.229999542236328,9.859999656677246 10.859999656677246,9.850000381469727 C17.600000381469727,9.84000015258789 18.969999313354492,7.769999980926514 24.299999237060547,5.079999923706055 C28.059999465942383,3.180000066757202 31.420000076293945,2.180000066757202 31.420000076293945,2.180000066757202 C31.420000076293945,2.180000066757202 33.060001373291016,1.6799999475479126 33.060001373291016,1.6799999475479126 C33.060001373291016,1.6799999475479126 35.630001068115234,0.9800000190734863 37.79999923706055,0.5699999928474426 C39.84000015258789,0.1899999976158142 43,0 43,0 C43,0 43,0 43,0z"></path></g><g style="display: none;" transform="matrix(1,0,0,1,12,0)" opacity="0.000011688871478696684"><path fill="rgb(182,86,33)" fill-opacity="0.4" d=" M43.099998474121094,25.579999923706055 C43.099998474121094,25.579999923706055 41.45000076293945,26.06999969482422 41.45000076293945,26.06999969482422 C41.45000076293945,26.06999969482422 36.58000183105469,25.040000915527344 33.630001068115234,23.84000015258789 C30.770000457763672,22.670000076293945 28.450000762939453,21.34000015258789 26.469999313354492,19.020000457763672 C24.770000457763672,17.030000686645508 24.030000686645508,14.859999656677246 21.649999618530273,14.859999656677246 C19.270000457763672,14.859999656677246 18.649999618530273,17.399999618530273 17.18000030517578,19.459999084472656 C15.84000015258789,21.34000015258789 13.619999885559082,23.360000610351562 11.210000038146973,24.700000762939453 C8.930000305175781,25.979999542236328 2.7799999713897705,28.100000381469727 2.7799999713897705,28.100000381469727 C2.7799999713897705,28.100000381469727 0,26.5 0,26.5 C1.7000000476837158,24.100000381469727 12.859999656677246,6.46999979019165 14.550000190734863,4 C16.239999771118164,1.5299999713897705 17.979999542236328,0 21.399999618530273,0 C24.5,0 26.43000030517578,1.600000023841858 28.1200008392334,3.990000009536743 C29.690000534057617,6.21999979019165 43.099998474121094,25.579999923706055 43.099998474121094,25.579999923706055 C43.099998474121094,25.579999923706055 43.099998474121094,25.579999923706055 43.099998474121094,25.579999923706055z"></path></g></g></svg>